<svg width="205" height="28" viewBox="0 0 205 28" fill="none" xmlns="http://www.w3.org/2000/svg">
<path d="M51.8024 5.75727C96.4398 9.48526 132.914 9.35445 161.329 5.75727C201.627 0.655804 237.613 23 120.853 23C-35.8955 23 -3.99441 1.09729 51.8024 5.75727Z" fill="#240000" stroke="black" stroke-width="10"/>
<path d="M107.856 17.8519C97.4733 17.4306 85.924 16.1763 76.8456 14.9191C77.1399 14.5694 77.4809 14.2186 77.8753 13.8743C80.068 11.9598 84.3485 9.88755 92.4154 10.0047C103.4 10.1643 115.224 11.366 123.298 13.5315C126.761 14.4603 129.006 15.434 130.228 16.2342C130.062 16.3065 129.859 16.387 129.613 16.4726C128.431 16.8839 126.738 17.2472 124.518 17.5138C120.093 18.0454 114.292 18.1131 107.856 17.8519ZM131.074 16.9289C131.074 16.9289 131.071 16.9258 131.067 16.9196C131.072 16.9258 131.074 16.9289 131.074 16.9289Z" fill="#7A002C" stroke="black" stroke-width="10"/>
</svg>
