<svg width="199" height="85" viewBox="0 0 199 85" fill="none" xmlns="http://www.w3.org/2000/svg">
<path d="M50.3274 9.08761C93.5274 24.2876 128.827 23.7542 156.327 9.08757C195.327 -11.7124 230.155 79.3907 117.155 79.3907C-34.5464 79.3908 -3.67257 -9.91239 50.3274 9.08761Z" fill="#240000" stroke="black" stroke-width="10"/>
<path d="M115.762 74.7868C102.166 73.8426 86.8504 70.84 75.608 68.0288C76.1288 64.3315 77.4201 60.0101 79.8577 56.3678C83.0075 51.6611 88.1643 47.8753 97.0779 48.0968C110.138 48.4215 124.147 50.8678 133.676 55.2417C138.473 57.4434 141.582 59.8837 143.124 62.2602C144.453 64.3095 144.849 66.6199 143.449 69.8217C142.835 71.2274 140.769 73.0095 135.381 74.1174C130.25 75.1723 123.436 75.3198 115.762 74.7868Z" fill="#7A002C" stroke="black" stroke-width="10"/>
</svg>
