<svg width="154" height="67" viewBox="0 0 154 67" fill="none" xmlns="http://www.w3.org/2000/svg">
<path d="M39.7615 8.35596C72.6644 19.9542 99.5502 19.5472 120.495 8.35594C150.199 -7.51528 176.725 62 90.6599 62C-24.8817 62 -1.36702 -6.14178 39.7615 8.35596Z" fill="#240000" stroke="black" stroke-width="10"/>
<path d="M94.7621 56.7868C81.1659 55.8426 65.8504 52.84 54.608 50.0288C55.1288 46.3315 56.4201 42.0101 58.8577 38.3678C62.0075 33.6611 67.1643 29.8753 76.0779 30.0968C89.1382 30.4215 103.147 32.8678 112.676 37.2417C117.473 39.4434 120.582 41.8837 122.124 44.2602C123.453 46.3095 123.849 48.6199 122.449 51.8217C121.835 53.2274 119.769 55.0095 114.381 56.1174C109.25 57.1723 102.436 57.3198 94.7621 56.7868Z" fill="#7A002C" stroke="black" stroke-width="10"/>
</svg>
