<svg width="204" height="45" viewBox="0 0 204 45" fill="none" xmlns="http://www.w3.org/2000/svg">
<path d="M50.8024 6.47248C95.4398 13.7213 131.914 13.467 160.329 6.47246C200.627 -3.44705 236.613 40 119.853 40C-36.8955 40 -4.99441 -2.58861 50.8024 6.47248Z" fill="#240000" stroke="black" stroke-width="10"/>
<path d="M107.046 34.7196C96.0327 33.8506 83.6126 31.1136 74.3528 28.5098C74.7941 24.9845 75.877 20.8954 77.895 17.4695C80.5092 13.0315 84.5492 9.81623 91.3468 10.0082C102.094 10.3117 113.552 12.6012 121.281 16.632C125.145 18.6467 127.63 20.864 128.874 23.0415C129.986 24.9888 130.338 27.282 129.142 30.388C128.666 31.6256 127.171 33.1367 122.977 34.1164C118.895 35.0699 113.379 35.2193 107.046 34.7196Z" fill="#7A002C" stroke="black" stroke-width="10"/>
</svg>
