<svg width="1437" height="2595" viewBox="0 0 1437 2595" fill="none" xmlns="http://www.w3.org/2000/svg">
<path d="M479.537 646.753C448.537 692.753 451.537 650.753 397.537 622.753C395.87 622.753 385.937 617.353 359.537 595.753C326.537 568.753 388.537 544.753 386.537 513.753C384.537 482.753 372.537 485.753 327.537 513.753C282.537 541.753 372.537 387.753 380.537 361.753C388.537 335.753 389.537 226.753 359.537 315.753C329.537 404.753 326.537 254.753 327.537 204.753C328.537 154.753 348.537 72.7531 417.537 23.7531C486.537 -25.2469 558.537 34.7531 596.537 56.7531C634.537 78.7531 685.537 33.7531 790.537 12.7531C895.537 -8.24692 911.537 87.7531 969.537 128.753C1027.54 169.753 1041.54 344.753 1025.54 347.753C1009.54 350.753 985.537 220.753 1005.54 404.753C1025.54 588.753 1001.54 524.753 975.537 513.753C949.537 502.753 965.537 690.753 940.537 669.753C915.537 648.753 906.537 660.753 889.537 681.753C872.537 702.753 835.537 681.753 801.537 660.753C767.537 639.753 773.537 669.753 757.537 681.753C741.537 693.753 691.537 684.753 665.537 660.753C639.537 636.753 606.537 655.753 587.537 669.753C568.537 683.753 519.537 669.753 516.537 655.753C513.537 641.753 510.537 600.753 479.537 646.753Z" fill="#744A24" stroke="black" stroke-width="10"/>
<path d="M660.537 91.7532C974.537 91.7532 961.537 287.753 963.537 395.753C965.537 503.753 852.537 661.753 794.537 685.753C736.537 709.753 644.537 736.753 574.537 685.753C504.537 634.753 407.537 466.753 408.537 395.753C409.537 324.753 417.152 152.763 525.537 115.753C607.537 87.7532 626.537 91.7532 660.537 91.7532Z" fill="#FFE2DE" stroke="black" stroke-width="10"/>
<path d="M488.537 377.753C466.537 522.753 447.537 418.753 406.537 309.753V270.753C398.537 253.753 410.737 222.553 415.537 193.753C421.537 157.753 458.537 131.753 488.537 112.753C518.537 93.7529 568.537 83.7529 594.537 78.7529C620.537 73.7529 749.537 81.7529 803.537 83.7529C857.537 85.7529 908.537 142.753 942.537 193.753C976.537 244.753 972.537 303.753 973.537 340.753C974.537 377.753 883.537 289.753 779.537 241.753C675.537 193.753 873.537 384.753 866.537 402.753C859.537 420.753 599.537 225.753 568.537 193.753C537.537 161.753 510.537 232.753 488.537 377.753Z" fill="#744A24" stroke="#744A24" stroke-width="10"/>
<path d="M602.092 464.571C630.465 462.25 643.94 437.171 647.835 418.316C660.167 387.665 627.826 335.241 583.408 341.673C553.168 346.052 535.746 391.172 541.837 418.905C550.294 457.409 570.331 467.169 602.092 464.571Z" fill="white" stroke="black" stroke-width="10"/>
<path d="M595.876 393.056C584.095 392.725 577.495 401.972 575.101 409.197C573.422 420.018 585.431 444.167 598.42 442.079C609.592 440.283 618.768 423.501 618.774 413.605C618.785 398.047 609.064 393.427 595.876 393.056Z" fill="black" stroke="#9D0000" stroke-width="10"/>
<path d="M778.365 464.522C806.738 462.202 820.214 437.123 824.109 418.267C836.44 387.617 804.099 335.192 759.682 341.624C729.441 346.004 712.019 391.123 718.11 418.857C726.567 457.36 746.604 467.12 778.365 464.522Z" fill="white" stroke="black" stroke-width="10"/>
<path d="M771.876 393.056C760.095 392.725 753.495 401.972 751.101 409.197C749.422 420.018 761.431 444.167 774.42 442.079C785.592 440.283 794.768 423.501 794.774 413.605C794.785 398.047 785.064 393.427 771.876 393.056Z" fill="black" stroke="#F4BF00" stroke-width="10"/>
<path d="M677.037 488.253C700.037 493.253 732.237 510.653 677.037 540.253" stroke="black" stroke-width="10"/>
<path d="M572 286.521C589.97 283.903 632.469 291.337 658.699 342.021" stroke="black" stroke-width="10"/>
<path d="M708.756 348.031C712.98 330.369 735.626 293.646 792.42 288.053" stroke="black" stroke-width="10"/>
<path d="M887.133 1875H596.254C596.254 1875 627.999 1523 596.254 1067.62C564.509 612.231 860.689 699.168 887.133 1067.62C913.576 1436.06 887.133 1875 887.133 1875Z" fill="#FFCAE3" stroke="black" stroke-width="10"/>
<path d="M916.826 932.119C883.444 846.59 945.746 863.597 945.746 863.597C933.457 931.919 1205.04 1070.86 1250 837.5C1294.96 604.137 1395.42 544.698 1316.5 851C1237.58 1157.3 950.207 1017.65 916.826 932.119Z" fill="#FFCAE3" stroke="black" stroke-width="10"/>
<path d="M540.5 946.014C556.11 855.478 494.49 884.691 494.49 884.691C522.971 949.167 269.125 1140.02 168.702 920.395C68.2788 700.77 -50.8614 662.755 101.87 947.018C254.601 1231.28 524.891 1036.55 540.5 946.014Z" fill="#FFCAE3" stroke="black" stroke-width="10"/>
<path d="M826.108 1925.2L881.117 1924.08C881.117 1924.08 894.448 2133.32 890.827 2403.82C887.205 2674.32 845.249 2623.76 835.818 2404.94C826.386 2186.11 826.108 1925.2 826.108 1925.2Z" fill="black" stroke="black" stroke-width="10"/>
<path d="M613.597 1922.92L668.599 1924.37C668.599 1924.37 672.156 2134 655.923 2404.04C639.689 2674.08 600.137 2621.62 600.921 2402.59C601.706 2183.56 613.597 1922.92 613.597 1922.92Z" fill="black" stroke="black" stroke-width="10"/>
</svg>
