<svg width="933" height="2594" viewBox="0 0 933 2594" fill="none" xmlns="http://www.w3.org/2000/svg">
<path d="M249.309 646.753C218.309 692.753 221.309 650.753 167.309 622.753C165.642 622.753 155.709 617.353 129.309 595.753C96.3088 568.753 158.309 544.753 156.309 513.753C154.309 482.753 142.309 485.753 97.3088 513.753C52.3088 541.753 142.309 387.753 150.309 361.753C158.309 335.753 159.309 226.753 129.309 315.753C99.3088 404.753 96.3088 254.753 97.3088 204.753C98.3088 154.753 118.309 72.7531 187.309 23.7531C256.309 -25.2469 328.309 34.7531 366.309 56.7531C404.309 78.7531 455.309 33.7531 560.309 12.7531C665.309 -8.24692 681.309 87.7531 739.309 128.753C797.309 169.753 811.309 344.753 795.309 347.753C779.309 350.753 755.309 220.753 775.309 404.753C795.309 588.753 771.309 524.753 745.309 513.753C719.309 502.753 735.309 690.753 710.309 669.753C685.309 648.753 676.309 660.753 659.309 681.753C642.309 702.753 605.309 681.753 571.309 660.753C537.309 639.753 543.309 669.753 527.309 681.753C511.309 693.753 461.309 684.753 435.309 660.753C409.309 636.753 376.309 655.753 357.309 669.753C338.309 683.753 289.309 669.753 286.309 655.753C283.309 641.753 280.309 600.753 249.309 646.753Z" fill="#744A24" stroke="black" stroke-width="10"/>
<path d="M430.309 91.7532C744.309 91.7532 731.309 287.753 733.309 395.753C735.309 503.753 622.309 661.753 564.309 685.753C506.309 709.753 414.309 736.753 344.309 685.753C274.309 634.753 177.309 466.753 178.309 395.753C179.309 324.753 186.924 152.763 295.309 115.753C377.309 87.7532 396.309 91.7532 430.309 91.7532Z" fill="#FFE2DE" stroke="black" stroke-width="10"/>
<path d="M258.309 377.753C236.309 522.753 217.309 418.753 176.309 309.753V270.753C168.309 253.753 180.509 222.553 185.309 193.753C191.309 157.753 228.309 131.753 258.309 112.753C288.309 93.7531 338.309 83.7531 364.309 78.7531C390.309 73.7531 519.309 81.7531 573.309 83.7531C627.309 85.7531 678.309 142.753 712.309 193.753C746.309 244.753 742.309 303.753 743.309 340.753C744.309 377.753 653.309 289.753 549.309 241.753C445.309 193.753 643.309 384.753 636.309 402.753C629.309 420.753 369.309 225.753 338.309 193.753C307.309 161.753 280.309 232.753 258.309 377.753Z" fill="#744A24" stroke="#744A24" stroke-width="10"/>
<path d="M371.864 464.571C400.236 462.25 413.712 437.171 417.607 418.316C429.938 387.665 397.598 335.241 353.18 341.673C322.939 346.052 305.517 391.172 311.609 418.905C320.066 457.409 340.103 467.169 371.864 464.571Z" fill="white" stroke="black" stroke-width="10"/>
<path d="M367.298 365.933C350.545 365.524 341.091 379.385 337.634 390.196C335.166 406.373 352.069 442.359 370.558 439.145C386.461 436.38 399.633 411.245 399.715 396.462C399.843 373.222 386.051 366.391 367.298 365.933Z" fill="black" stroke="black" stroke-width="10"/>
<path d="M548.137 464.523C576.51 462.202 589.985 437.123 593.881 418.268C606.212 387.617 573.871 335.193 529.453 341.625C499.213 346.004 481.791 391.124 487.882 418.857C496.339 457.361 516.376 467.121 548.137 464.523Z" fill="white" stroke="black" stroke-width="10"/>
<path d="M540.904 369.943C523.977 369.395 514.574 381.852 511.196 391.61C508.875 406.239 526.333 439.021 544.975 436.306C561.01 433.97 574.049 411.339 573.975 397.946C573.857 376.893 559.852 370.558 540.904 369.943Z" fill="black" stroke="black" stroke-width="10"/>
<path d="M446.809 488.253C469.809 493.253 502.009 510.653 446.809 540.253" stroke="black" stroke-width="10"/>
<path d="M282.639 270.21C293.63 255.754 329.167 231.29 383.39 249.088" stroke="black" stroke-width="10"/>
<path d="M541.045 255.654C556.467 246.066 598.39 235.878 642.706 271.835" stroke="black" stroke-width="10"/>
<path d="M593.02 1874H302.141C302.141 1874 254.062 1521.55 302.141 1066.62C350.22 611.68 566.576 698.168 593.02 1066.62C619.463 1435.06 593.02 1874 593.02 1874Z" fill="#FFCAE3" stroke="black" stroke-width="10"/>
<path d="M240.225 906.095L292.181 924.203C292.181 924.203 217.032 1123.92 147.146 1385.36C77.2598 1646.81 43.9631 1575.04 82.3045 1359.2C120.646 1143.36 240.225 906.095 240.225 906.095Z" fill="#FFCAE3" stroke="black" stroke-width="10"/>
<path d="M669.951 884.318L621.734 903.22C621.734 903.22 704.178 1100.03 785.105 1358.18C866.032 1616.33 893.55 1544.52 845.08 1331.06C796.611 1117.59 669.951 884.318 669.951 884.318Z" fill="#FFCAE3" stroke="black" stroke-width="10"/>
<path d="M531.995 1924.2L587.004 1923.08C587.004 1923.08 600.335 2132.32 596.714 2402.82C593.092 2673.32 551.136 2622.76 541.704 2403.94C532.273 2185.11 531.995 1924.2 531.995 1924.2Z" fill="black" stroke="black" stroke-width="10"/>
<path d="M319.484 1921.92L374.485 1923.37C374.485 1923.37 378.043 2133 361.809 2403.04C345.576 2673.08 306.023 2620.62 306.808 2401.59C307.593 2182.56 319.484 1921.92 319.484 1921.92Z" fill="black" stroke="black" stroke-width="10"/>
</svg>
