<svg width="823" height="2539" viewBox="0 0 823 2539" fill="none" xmlns="http://www.w3.org/2000/svg">
<path d="M169.537 646.753C138.537 692.753 141.537 650.753 87.5368 622.753C85.8702 622.753 75.9368 617.353 49.5368 595.753C16.5369 568.753 78.5368 544.753 76.5368 513.753C74.5368 482.753 62.5368 485.753 17.5368 513.753C-27.4632 541.753 62.5368 387.753 70.5368 361.753C78.5368 335.753 79.5368 226.753 49.5368 315.753C19.5368 404.753 16.5368 254.753 17.5368 204.753C18.5368 154.753 38.5368 72.7531 107.537 23.7531C176.537 -25.2469 248.537 34.7531 286.537 56.7531C324.537 78.7531 375.537 33.7531 480.537 12.7531C585.537 -8.24692 601.537 87.7531 659.537 128.753C717.537 169.753 731.537 344.753 715.537 347.753C699.537 350.753 675.537 220.753 695.537 404.753C715.537 588.753 691.537 524.753 665.537 513.753C639.537 502.753 655.537 690.753 630.537 669.753C605.537 648.753 596.537 660.753 579.537 681.753C562.537 702.753 525.537 681.753 491.537 660.753C457.537 639.753 463.537 669.753 447.537 681.753C431.537 693.753 381.537 684.753 355.537 660.753C329.537 636.753 296.537 655.753 277.537 669.753C258.537 683.753 209.537 669.753 206.537 655.753C203.537 641.753 200.537 600.753 169.537 646.753Z" fill="#744A24" stroke="black" stroke-width="10"/>
<path d="M350.537 91.7531C664.537 91.7531 651.537 287.753 653.537 395.753C655.537 503.753 542.537 661.753 484.537 685.753C426.537 709.753 334.537 736.753 264.537 685.753C194.537 634.753 97.537 466.753 98.537 395.753C99.537 324.753 107.152 152.763 215.537 115.753C297.537 87.7531 316.537 91.7531 350.537 91.7531Z" fill="#FFE2DE" stroke="black" stroke-width="10"/>
<path d="M178.536 377.753C156.536 522.753 137.536 418.753 96.5364 309.753V270.753C88.5364 253.753 100.736 222.553 105.536 193.753C111.536 157.753 148.536 131.753 178.536 112.753C208.536 93.7531 258.536 83.7531 284.536 78.7531C310.536 73.7531 439.536 81.7531 493.536 83.7531C547.536 85.7531 598.536 142.753 632.536 193.753C666.536 244.753 662.536 303.753 663.536 340.753C664.536 377.753 573.536 289.753 469.536 241.753C365.536 193.753 563.536 384.753 556.536 402.753C549.536 420.753 289.536 225.753 258.536 193.753C227.536 161.753 200.536 232.753 178.536 377.753Z" fill="#744A24" stroke="#744A24" stroke-width="10"/>
<path d="M292.093 464.571C320.465 462.25 333.941 437.171 337.836 418.316C350.167 387.665 317.827 335.241 273.409 341.673C243.168 346.052 225.746 391.172 231.838 418.905C240.295 457.409 260.332 467.169 292.093 464.571Z" fill="white" stroke="black" stroke-width="10"/>
<path d="M320.373 416.55C311.446 416.244 306.506 422.622 304.739 427.624C303.536 435.127 312.789 451.973 322.615 450.606C331.067 449.431 337.91 437.838 337.851 430.966C337.759 420.163 330.365 416.892 320.373 416.55Z" fill="black" stroke="black" stroke-width="10"/>
<path d="M468.366 464.523C496.739 462.202 510.214 437.123 514.11 418.268C526.441 387.617 494.1 335.193 449.682 341.625C419.442 346.004 402.02 391.124 408.111 418.857C416.568 457.361 436.605 467.121 468.366 464.523Z" fill="white" stroke="black" stroke-width="10"/>
<path d="M489.231 416.636C479.776 416.273 474.586 422.585 472.747 427.549C471.523 435.005 481.432 451.823 491.829 450.528C500.771 449.415 507.942 437.927 507.835 431.091C507.666 420.344 499.815 417.042 489.231 416.636Z" fill="black" stroke="black" stroke-width="10"/>
<path d="M367.037 488.253C390.037 493.253 422.237 510.653 367.037 540.253" stroke="black" stroke-width="10"/>
<path d="M194.279 306.306C204.205 291.099 237.899 264.151 293.257 278.018" stroke="black" stroke-width="10"/>
<path d="M452 283.602C468.805 276.719 511.84 273.663 549.541 316.506" stroke="black" stroke-width="10"/>
<path d="M426.134 1819H135.255C135.255 1819 20.5 1415 135.255 1011.62C250.01 608.232 514.268 676.732 426.134 1011.62C338 1346.5 426.134 1819 426.134 1819Z" fill="#FFCAE3" stroke="black" stroke-width="10"/>
<path d="M573.207 1128.94C484.083 1089.8 469.074 904.98 469.074 904.98C472.944 866.541 507.445 892.513 537.127 1000.6C551.159 1051.7 589.106 1086.83 606.274 1073.86C623.908 1060.54 612.651 1010.51 591.211 950.1C569.772 889.69 541.366 847.162 507 762C479.81 694.62 457.416 600.462 514.5 684C542.441 724.889 564.129 773.473 643.999 925.106C723.868 1076.74 662.331 1168.09 573.207 1128.94Z" fill="#FFCAE3" stroke="black" stroke-width="10"/>
<path d="M182.8 1040.7C55.9263 1018.87 136.146 919.036 192.115 871.845C186.167 844.747 160.81 811.534 106.971 895.462C39.673 1000.37 74.7625 1044.01 96.779 1080.23C118.796 1116.45 240.218 1114.91 322.718 1108.65C405.219 1102.39 527.764 1095.77 582.67 1062.76C637.575 1029.75 585.118 995.454 557.08 1007.29C529.042 1019.13 341.393 1067.98 182.8 1040.7Z" fill="#FFCAE3" stroke="black" stroke-width="10"/>
<path d="M365.109 1869.2L420.118 1868.08C420.118 1868.08 433.449 2077.32 429.827 2347.82C426.206 2618.32 384.25 2567.76 374.818 2348.93C365.386 2130.11 365.109 1869.2 365.109 1869.2Z" fill="black" stroke="black" stroke-width="10"/>
<path d="M152.598 1866.92L207.599 1868.37C207.599 1868.37 211.157 2078 194.923 2348.04C178.689 2618.08 139.137 2565.62 139.922 2346.59C140.706 2127.56 152.598 1866.92 152.598 1866.92Z" fill="black" stroke="black" stroke-width="10"/>
</svg>
