<svg width="1163" height="2594" viewBox="0 0 1163 2594" fill="none" xmlns="http://www.w3.org/2000/svg">
<path d="M249.309 646.753C218.309 692.753 221.309 650.753 167.309 622.753C165.643 622.753 155.709 617.353 129.309 595.753C96.3093 568.753 158.309 544.753 156.309 513.753C154.309 482.753 142.309 485.753 97.3093 513.753C52.3093 541.753 142.309 387.753 150.309 361.753C158.309 335.753 159.309 226.753 129.309 315.753C99.3093 404.753 96.3093 254.753 97.3093 204.753C98.3093 154.753 118.309 72.7531 187.309 23.7531C256.309 -25.2469 328.309 34.7531 366.309 56.7531C404.309 78.7531 455.309 33.7531 560.309 12.7531C665.309 -8.24692 681.309 87.7531 739.309 128.753C797.309 169.753 811.309 344.753 795.309 347.753C779.309 350.753 755.309 220.753 775.309 404.753C795.309 588.753 771.309 524.753 745.309 513.753C719.309 502.753 735.309 690.753 710.309 669.753C685.309 648.753 676.309 660.753 659.309 681.753C642.309 702.753 605.309 681.753 571.309 660.753C537.309 639.753 543.309 669.753 527.309 681.753C511.309 693.753 461.309 684.753 435.309 660.753C409.309 636.753 376.309 655.753 357.309 669.753C338.309 683.753 289.309 669.753 286.309 655.753C283.309 641.753 280.309 600.753 249.309 646.753Z" fill="#744A24" stroke="black" stroke-width="10"/>
<path d="M430.309 91.7531C744.309 91.7531 731.309 287.753 733.309 395.753C735.309 503.753 622.309 661.753 564.309 685.753C506.309 709.753 414.309 736.753 344.309 685.753C274.309 634.753 177.309 466.753 178.309 395.753C179.309 324.753 186.924 152.763 295.309 115.753C377.309 87.7531 396.309 91.7531 430.309 91.7531Z" fill="#FFE2DE" stroke="black" stroke-width="10"/>
<path d="M258.309 377.753C236.309 522.753 217.309 418.753 176.309 309.753V270.753C168.309 253.753 180.509 222.553 185.309 193.753C191.309 157.753 228.309 131.753 258.309 112.753C288.309 93.7531 338.309 83.7531 364.309 78.7531C390.309 73.7531 519.309 81.7531 573.309 83.7531C627.309 85.7531 678.309 142.753 712.309 193.753C746.309 244.753 742.309 303.753 743.309 340.753C744.309 377.753 653.309 289.753 549.309 241.753C445.309 193.753 643.309 384.753 636.309 402.753C629.309 420.753 369.309 225.753 338.309 193.753C307.309 161.753 280.309 232.753 258.309 377.753Z" fill="#744A24" stroke="#744A24" stroke-width="10"/>
<path d="M371.864 464.571C400.237 462.25 413.712 437.171 417.608 418.316C429.939 387.665 397.598 335.241 353.18 341.673C322.94 346.052 305.518 391.172 311.609 418.905C320.066 457.409 340.103 467.169 371.864 464.571Z" fill="white" stroke="black" stroke-width="10"/>
<path d="M388.762 370.056C376.981 369.725 370.381 378.972 367.987 386.197C366.308 397.018 378.317 421.167 391.306 419.079C402.478 417.283 411.654 400.501 411.66 390.605C411.671 375.047 401.95 370.427 388.762 370.056Z" fill="black" stroke="black" stroke-width="10"/>
<path d="M548.138 464.523C576.51 462.202 589.986 437.123 593.881 418.268C606.212 387.617 573.872 335.193 529.454 341.625C499.213 346.004 481.791 391.124 487.883 418.857C496.339 457.361 516.377 467.121 548.138 464.523Z" fill="white" stroke="black" stroke-width="10"/>
<path d="M567.762 374.056C555.981 373.725 549.381 382.972 546.987 390.197C545.308 401.018 557.317 425.167 570.306 423.079C581.478 421.283 590.654 404.501 590.66 394.605C590.671 379.047 580.95 374.427 567.762 374.056Z" fill="black" stroke="black" stroke-width="10"/>
<path d="M446.809 488.253C469.809 493.253 502.009 510.653 446.809 540.253" stroke="black" stroke-width="10"/>
<path d="M299.954 344.758C310.945 330.301 346.482 305.838 400.705 323.636" stroke="black" stroke-width="10"/>
<path d="M485.886 338.997C498.114 325.57 535.679 304.35 588.112 326.88" stroke="black" stroke-width="10"/>
<path d="M593.02 1874H302.141C302.141 1874 254.062 1521.55 302.141 1066.62C350.221 611.681 566.577 698.168 593.02 1066.62C619.464 1435.06 593.02 1874 593.02 1874Z" fill="#FFCAE3" stroke="black" stroke-width="10"/>
<path d="M649.352 957.345C596.238 884.051 668.467 885.638 668.467 885.638C716.386 907.5 744.467 1081.14 825.967 1016.64C907.467 952.138 927.967 857.6 1019.47 827.638C1110.97 797.677 1261.47 868.638 1025.2 895.967C979.977 962.946 892.451 1058.94 845.466 1105.64C762.966 1187.64 702.466 1030.64 649.352 957.345Z" fill="#FFCAE3" stroke="black" stroke-width="10"/>
<path d="M240.226 906.095L292.181 924.203C292.181 924.203 217.033 1123.92 147.146 1385.36C77.2603 1646.81 43.9635 1575.04 82.305 1359.2C120.646 1143.36 240.226 906.095 240.226 906.095Z" fill="#FFCAE3" stroke="black" stroke-width="10"/>
<path d="M531.995 1924.2L587.005 1923.08C587.005 1923.08 600.335 2132.32 596.714 2402.82C593.093 2673.32 551.137 2622.76 541.705 2403.94C532.273 2185.11 531.995 1924.2 531.995 1924.2Z" fill="black" stroke="black" stroke-width="10"/>
<path d="M319.485 1921.92L374.486 1923.37C374.486 1923.37 378.043 2133 361.81 2403.04C345.576 2673.08 306.024 2620.62 306.808 2401.59C307.593 2182.56 319.485 1921.92 319.485 1921.92Z" fill="black" stroke="black" stroke-width="10"/>
</svg>
