<svg width="941" height="2595" viewBox="0 0 941 2595" fill="none" xmlns="http://www.w3.org/2000/svg">
<path d="M218.537 646.753C187.537 692.753 190.537 650.753 136.537 622.753C134.87 622.753 124.937 617.353 98.5368 595.753C65.5369 568.753 127.537 544.753 125.537 513.753C123.537 482.753 111.537 485.753 66.5368 513.753C21.5368 541.753 111.537 387.753 119.537 361.753C127.537 335.753 128.537 226.753 98.5368 315.753C68.5368 404.753 65.5368 254.753 66.5368 204.753C67.5368 154.753 87.5368 72.7531 156.537 23.7531C225.537 -25.2469 297.537 34.7531 335.537 56.7531C373.537 78.7531 424.537 33.7531 529.537 12.7531C634.537 -8.24692 650.537 87.7531 708.537 128.753C766.537 169.753 780.537 344.753 764.537 347.753C748.537 350.753 724.537 220.753 744.537 404.753C764.537 588.753 740.537 524.753 714.537 513.753C688.537 502.753 704.537 690.753 679.537 669.753C654.537 648.753 645.537 660.753 628.537 681.753C611.537 702.753 574.537 681.753 540.537 660.753C506.537 639.753 512.537 669.753 496.537 681.753C480.537 693.753 430.537 684.753 404.537 660.753C378.537 636.753 345.537 655.753 326.537 669.753C307.537 683.753 258.537 669.753 255.537 655.753C252.537 641.753 249.537 600.753 218.537 646.753Z" fill="#744A24" stroke="black" stroke-width="10"/>
<path d="M399.537 91.7531C713.537 91.7531 700.537 287.753 702.537 395.753C704.537 503.753 591.537 661.753 533.537 685.753C475.537 709.753 383.537 736.753 313.537 685.753C243.537 634.753 146.537 466.753 147.537 395.753C148.537 324.753 156.152 152.763 264.537 115.753C346.537 87.7531 365.537 91.7531 399.537 91.7531Z" fill="#FFE2DE" stroke="black" stroke-width="10"/>
<path d="M227.537 377.753C205.537 522.753 186.537 418.753 145.537 309.753V270.753C137.537 253.753 149.737 222.553 154.537 193.753C160.537 157.753 197.537 131.753 227.537 112.753C257.537 93.7531 307.537 83.7531 333.537 78.7531C359.537 73.7531 488.537 81.7531 542.537 83.7531C596.537 85.7531 647.537 142.753 681.537 193.753C715.537 244.753 711.537 303.753 712.537 340.753C713.537 377.753 622.537 289.753 518.537 241.753C414.537 193.753 612.537 384.753 605.537 402.753C598.537 420.753 338.537 225.753 307.537 193.753C276.537 161.753 249.537 232.753 227.537 377.753Z" fill="#744A24" stroke="#744A24" stroke-width="10"/>
<path d="M341.092 464.571C369.465 462.25 382.94 437.171 386.835 418.316C399.167 387.665 366.826 335.241 322.408 341.673C292.168 346.052 274.746 391.172 280.837 418.905C289.294 457.409 309.331 467.169 341.092 464.571Z" fill="white" stroke="black" stroke-width="10"/>
<path d="M364.876 401.056C353.095 400.725 346.495 409.972 344.101 417.197C342.422 428.018 354.431 452.167 367.42 450.079C378.592 448.283 387.768 431.501 387.774 421.605C387.785 406.047 378.064 401.427 364.876 401.056Z" fill="black" stroke="black" stroke-width="10"/>
<path d="M517.365 464.523C545.738 462.202 559.214 437.123 563.109 418.268C575.44 387.617 543.099 335.193 498.682 341.625C468.441 346.004 451.019 391.124 457.11 418.857C465.567 457.361 485.604 467.121 517.365 464.523Z" fill="white" stroke="black" stroke-width="10"/>
<path d="M534.876 401.056C523.095 400.725 516.495 409.972 514.101 417.197C512.422 428.018 524.431 452.167 537.42 450.079C548.592 448.283 557.768 431.501 557.774 421.605C557.785 406.047 548.064 401.427 534.876 401.056Z" fill="black" stroke="black" stroke-width="10"/>
<path d="M416.037 488.253C439.037 493.253 471.237 510.653 416.037 540.253" stroke="black" stroke-width="10"/>
<path d="M243.279 306.306C253.205 291.099 286.899 264.151 342.257 278.018" stroke="black" stroke-width="10"/>
<path d="M501 283.602C517.805 276.719 560.84 273.663 598.541 316.506" stroke="black" stroke-width="10"/>
<path d="M626.134 1875H335.255C335.255 1875 367 1523 335.255 1067.62C303.51 612.231 599.69 699.168 626.134 1067.62C652.577 1436.06 626.134 1875 626.134 1875Z" fill="#FFCAE3" stroke="black" stroke-width="10"/>
<path d="M279.466 876.73C368.546 898.962 312.886 942 312.886 942C264.256 892.463 -8.11435 1187 175.886 1253.5C359.886 1320 404.387 1424.5 154.887 1300C-94.6142 1175.5 190.386 854.499 279.466 876.73Z" fill="#FFCAE3" stroke="black" stroke-width="10"/>
<path d="M691.886 966.706C601.888 948.543 649.88 905.329 649.88 905.329C700.71 952.607 888.886 903 716.886 739C544.886 575 557.887 493 772.886 725C987.886 957 781.884 984.87 691.886 966.706Z" fill="#FFCAE3" stroke="black" stroke-width="10"/>
<path d="M565.109 1925.2L620.118 1924.08C620.118 1924.08 633.449 2133.32 629.828 2403.82C626.206 2674.32 584.25 2623.76 574.819 2404.94C565.387 2186.11 565.109 1925.2 565.109 1925.2Z" fill="black" stroke="black" stroke-width="10"/>
<path d="M352.598 1922.92L407.6 1924.37C407.6 1924.37 411.157 2134 394.924 2404.04C378.69 2674.08 339.138 2621.62 339.922 2402.59C340.707 2183.56 352.598 1922.92 352.598 1922.92Z" fill="black" stroke="black" stroke-width="10"/>
</svg>
