<svg width="1163" height="2594" viewBox="0 0 1163 2594" fill="none" xmlns="http://www.w3.org/2000/svg">
<path d="M295.537 646.753C264.537 692.753 267.537 650.753 213.537 622.753C211.87 622.753 201.937 617.353 175.537 595.753C142.537 568.753 204.537 544.753 202.537 513.753C200.537 482.753 188.537 485.753 143.537 513.753C98.5368 541.753 188.537 387.753 196.537 361.753C204.537 335.753 205.537 226.753 175.537 315.753C145.537 404.753 142.537 254.753 143.537 204.753C144.537 154.753 164.537 72.7531 233.537 23.7531C302.537 -25.2469 374.537 34.7531 412.537 56.7531C450.537 78.7531 501.537 33.7531 606.537 12.7531C711.537 -8.24692 727.537 87.7531 785.537 128.753C843.537 169.753 857.537 344.753 841.537 347.753C825.537 350.753 801.537 220.753 821.537 404.753C841.537 588.753 817.537 524.753 791.537 513.753C765.537 502.753 781.537 690.753 756.537 669.753C731.537 648.753 722.537 660.753 705.537 681.753C688.537 702.753 651.537 681.753 617.537 660.753C583.537 639.753 589.537 669.753 573.537 681.753C557.537 693.753 507.537 684.753 481.537 660.753C455.537 636.753 422.537 655.753 403.537 669.753C384.537 683.753 335.537 669.753 332.537 655.753C329.537 641.753 326.537 600.753 295.537 646.753Z" fill="#744A24" stroke="black" stroke-width="10"/>
<path d="M476.537 91.7531C790.537 91.7531 777.537 287.753 779.537 395.753C781.537 503.753 668.537 661.753 610.537 685.753C552.537 709.753 460.537 736.753 390.537 685.753C320.537 634.753 223.537 466.753 224.537 395.753C225.537 324.753 233.152 152.763 341.537 115.753C423.537 87.7531 442.537 91.7531 476.537 91.7531Z" fill="#FFE2DE" stroke="black" stroke-width="10"/>
<path d="M304.537 377.753C282.537 522.753 263.537 418.753 222.537 309.753V270.753C214.537 253.753 226.737 222.553 231.537 193.753C237.537 157.753 274.537 131.753 304.537 112.753C334.537 93.7531 384.537 83.7531 410.537 78.7531C436.537 73.7531 565.537 81.7531 619.537 83.7531C673.537 85.7531 724.537 142.753 758.537 193.753C792.537 244.753 788.537 303.753 789.537 340.753C790.537 377.753 699.537 289.753 595.537 241.753C491.537 193.753 689.537 384.753 682.537 402.753C675.537 420.753 415.537 225.753 384.537 193.753C353.537 161.753 326.537 232.753 304.537 377.753Z" fill="#744A24" stroke="#744A24" stroke-width="10"/>
<path d="M418.092 464.571C446.464 462.25 459.94 437.171 463.835 418.316C476.166 387.665 443.826 335.241 399.408 341.673C369.167 346.052 351.746 391.172 357.837 418.905C366.294 457.409 386.331 467.169 418.092 464.571Z" fill="white" stroke="black" stroke-width="10"/>
<path d="M434.99 370.056C423.209 369.725 416.609 378.972 414.215 386.197C412.535 397.018 424.544 421.167 437.533 419.079C448.706 417.283 457.881 400.501 457.888 390.605C457.898 375.047 448.177 370.427 434.99 370.056Z" fill="black" stroke="black" stroke-width="10"/>
<path d="M594.365 464.523C622.738 462.202 636.213 437.123 640.109 418.268C652.44 387.617 620.099 335.193 575.681 341.625C545.441 346.004 528.019 391.124 534.11 418.857C542.567 457.361 562.604 467.121 594.365 464.523Z" fill="white" stroke="black" stroke-width="10"/>
<path d="M613.99 374.056C602.209 373.725 595.609 382.972 593.215 390.197C591.535 401.018 603.544 425.167 616.533 423.079C627.706 421.283 636.881 404.501 636.888 394.605C636.898 379.047 627.177 374.427 613.99 374.056Z" fill="black" stroke="black" stroke-width="10"/>
<path d="M493.037 488.253C516.037 493.253 548.237 510.653 493.037 540.253" stroke="black" stroke-width="10"/>
<path d="M320.516 333.069C323.59 315.17 343.814 277.061 400.128 267.808" stroke="black" stroke-width="10"/>
<path d="M614.113 272.372C632.272 272.179 673.396 285.227 692.616 338.962" stroke="black" stroke-width="10"/>
<path d="M588.376 1874H297.497C297.497 1874 249.418 1521.55 297.497 1066.62C345.576 611.68 635.751 703.231 588.376 1066.62C541 1430 588.376 1874 588.376 1874Z" fill="#FFCAE3" stroke="black" stroke-width="10"/>
<path d="M656.537 971.276C665.597 893.283 699.781 910.967 699.781 910.967C736.869 948.366 680.737 1173.57 775.161 1156.89C869.584 1140.22 938.699 1081.85 1034.88 1086.2C1131.06 1090.54 1241.13 1208.75 1010.47 1150.74C907.775 1190.48 816.139 1250.44 739.964 1249.96C663.788 1249.48 647.477 1049.27 656.537 971.276Z" fill="#FFCAE3" stroke="black" stroke-width="10"/>
<path d="M235.582 906.095L287.537 924.203C287.537 924.203 169.356 1129 169.356 1391C169.356 1653 137.051 1620.3 111.856 1406.5C86.6611 1192.7 235.582 906.095 235.582 906.095Z" fill="#FFCAE3" stroke="black" stroke-width="10"/>
<path d="M527.351 1924.2L582.36 1923.08C582.36 1923.08 595.691 2132.32 592.07 2402.82C588.449 2673.32 546.493 2622.76 537.061 2403.94C527.629 2185.11 527.351 1924.2 527.351 1924.2Z" fill="black" stroke="black" stroke-width="10"/>
<path d="M314.84 1921.92L369.842 1923.37C369.842 1923.37 373.399 2133 357.166 2403.04C340.932 2673.08 301.38 2620.62 302.164 2401.59C302.949 2182.56 314.84 1921.92 314.84 1921.92Z" fill="black" stroke="black" stroke-width="10"/>
</svg>
