<svg width="1011" height="2554" viewBox="0 0 1011 2554" fill="none" xmlns="http://www.w3.org/2000/svg">
<path d="M169.537 646.753C138.537 692.753 141.537 650.753 87.5368 622.753C85.8702 622.753 75.9368 617.353 49.5368 595.753C16.5369 568.753 78.5368 544.753 76.5368 513.753C74.5368 482.753 62.5368 485.753 17.5368 513.753C-27.4632 541.753 62.5368 387.753 70.5368 361.753C78.5368 335.753 79.5368 226.753 49.5368 315.753C19.5368 404.753 16.5368 254.753 17.5368 204.753C18.5368 154.753 38.5368 72.7531 107.537 23.7531C176.537 -25.2469 248.537 34.7531 286.537 56.7531C324.537 78.7531 375.537 33.7531 480.537 12.7531C585.537 -8.24692 601.537 87.7531 659.537 128.753C717.537 169.753 731.537 344.753 715.537 347.753C699.537 350.753 675.537 220.753 695.537 404.753C715.537 588.753 691.537 524.753 665.537 513.753C639.537 502.753 655.537 690.753 630.537 669.753C605.537 648.753 596.537 660.753 579.537 681.753C562.537 702.753 525.537 681.753 491.537 660.753C457.537 639.753 463.537 669.753 447.537 681.753C431.537 693.753 381.537 684.753 355.537 660.753C329.537 636.753 296.537 655.753 277.537 669.753C258.537 683.753 209.537 669.753 206.537 655.753C203.537 641.753 200.537 600.753 169.537 646.753Z" fill="#744A24" stroke="black" stroke-width="10"/>
<path d="M350.537 91.7531C664.537 91.7531 651.537 287.753 653.537 395.753C655.537 503.753 542.537 661.753 484.537 685.753C426.537 709.753 334.537 736.753 264.537 685.753C194.537 634.753 97.537 466.753 98.537 395.753C99.537 324.753 107.152 152.763 215.537 115.753C297.537 87.7531 316.537 91.7531 350.537 91.7531Z" fill="#FFE2DE" stroke="black" stroke-width="10"/>
<path d="M178.537 377.753C156.537 522.753 137.537 418.753 96.5369 309.753V270.753C88.5369 253.753 100.737 222.553 105.537 193.753C111.537 157.753 148.537 131.753 178.537 112.753C208.537 93.7531 258.537 83.7531 284.537 78.7531C310.537 73.7531 439.537 81.7531 493.537 83.7531C547.537 85.7531 598.537 142.753 632.537 193.753C666.537 244.753 662.537 303.753 663.537 340.753C664.537 377.753 573.537 289.753 469.537 241.753C365.537 193.753 563.537 384.753 556.537 402.753C549.537 420.753 289.537 225.753 258.537 193.753C227.537 161.753 200.537 232.753 178.537 377.753Z" fill="#744A24" stroke="#744A24" stroke-width="10"/>
<path d="M292.092 464.571C320.464 462.25 333.94 437.171 337.835 418.316C350.166 387.665 317.826 335.241 273.408 341.673C243.167 346.052 225.746 391.172 231.837 418.905C240.294 457.409 260.331 467.169 292.092 464.571Z" fill="white" stroke="black" stroke-width="10"/>
<path d="M305.645 369.809C292.237 369.856 284.256 385.235 281.169 397.114C278.716 414.81 291.199 453.517 306.103 449.472C318.923 445.992 330.215 418.222 330.715 402.114C331.501 376.792 320.653 369.756 305.645 369.809Z" fill="black" stroke="black" stroke-width="10"/>
<path d="M468.365 464.523C496.738 462.202 510.213 437.123 514.109 418.268C526.44 387.617 494.099 335.193 449.681 341.625C419.441 346.004 402.019 391.124 408.11 418.857C416.567 457.361 436.604 467.121 468.365 464.523Z" fill="white" stroke="black" stroke-width="10"/>
<path d="M488.121 374.134C476.366 374.196 469.346 387.92 466.621 398.515C464.444 414.296 475.329 448.787 488.402 445.158C499.647 442.037 509.588 417.261 510.051 402.899C510.779 380.322 501.279 374.065 488.121 374.134Z" fill="black" stroke="black" stroke-width="10"/>
<path d="M367.037 488.253C390.037 493.253 422.237 510.653 367.037 540.253" stroke="black" stroke-width="10"/>
<path d="M220.182 344.758C231.173 330.301 280.114 327 320.933 323.636" stroke="black" stroke-width="10"/>
<path d="M412.801 328.326C439.5 318 449.981 274.507 512.5 353.959" stroke="black" stroke-width="10"/>
<path d="M462.719 899.542C398.497 831.323 480.024 842.911 480.024 842.911C532.153 850.448 564.476 894.799 647.734 987.146C730.991 1079.49 765.675 1170.13 870.009 1170.13C974.343 1170.13 1056.34 1194 961.646 1228.77C870.009 1238 782.843 1253.47 664.322 1127.64C545.801 1001.81 526.942 967.762 462.719 899.542Z" fill="#FFCAE3" stroke="black" stroke-width="10"/>
<path d="M594.134 1834H303.255C303.255 1834 455.01 1388.23 303.255 1026.62C151.5 665 567.69 658.168 594.134 1026.62C620.577 1395.06 594.134 1834 594.134 1834Z" fill="#FFCAE3" stroke="black" stroke-width="10"/>
<path d="M251.407 929.569C203.996 848.756 280.892 878.216 280.892 878.216C330.032 897.176 351.664 947.613 412.257 1056.19C472.85 1164.76 484.685 1243.9 588.183 1284.09C691.681 1324.27 748.004 1429.69 586.115 1348.54C429.22 1269.91 427.558 1248.67 397.131 1196.84C366.704 1145.01 298.818 1010.38 251.407 929.569Z" fill="#FFCAE3" stroke="black" stroke-width="10"/>
<path d="M533.109 1884.2L588.118 1883.08C588.118 1883.08 601.449 2092.32 597.828 2362.82C594.206 2633.32 552.25 2582.76 542.819 2363.94C533.387 2145.11 533.109 1884.2 533.109 1884.2Z" fill="black" stroke="black" stroke-width="10"/>
<path d="M320.598 1881.92L375.599 1883.37C375.599 1883.37 379.157 2093 362.923 2363.04C346.689 2633.08 307.137 2580.62 307.922 2361.59C308.706 2142.56 320.598 1881.92 320.598 1881.92Z" fill="black" stroke="black" stroke-width="10"/>
</svg>
